<svg width="113" height="86" viewBox="0 0 113 86" fill="none" xmlns="http://www.w3.org/2000/svg">
<path d="M69.1934 57.3333H72.8023C75.2083 57.3333 80.02 55.9 80.02 50.1667C80.02 44.4333 75.2083 43 72.8023 43H65.5845C63.1784 43 58.3667 41.5667 58.3667 35.8333C58.3667 30.1 63.1784 28.6667 65.5845 28.6667H69.1934M69.1934 57.3333H58.3667M69.1934 57.3333V64.5M69.1934 28.6667H80.02M69.1934 28.6667V21.5M101.673 43C101.673 60.8113 87.1317 75.25 69.1934 75.25C51.2552 75.25 36.7134 60.8113 36.7134 43C36.7134 25.1888 51.2552 10.75 69.1934 10.75C87.1317 10.75 101.673 25.1888 101.673 43Z" stroke="#C8C8C8" stroke-width="3" stroke-linecap="round" stroke-linejoin="round"/>
<line x1="13.9399" y1="18.2759" x2="33.3533" y2="18.2759" stroke="#C8C8C8" stroke-width="2"/>
<line x1="4.97998" y1="30.1379" x2="27.38" y2="30.1379" stroke="#C8C8C8" stroke-width="2"/>
<line x1="15.4333" y1="49.4138" x2="33.3533" y2="49.4138" stroke="#C8C8C8" stroke-width="2"/>
<line x1="0.5" y1="65.7241" x2="31.86" y2="65.7241" stroke="#C8C8C8" stroke-width="2"/>
</svg>
