<svg width="197" height="58" viewBox="0 0 197 58" fill="none" xmlns="http://www.w3.org/2000/svg">
<path d="M46 38.6667H48.4167C50.0279 38.6667 53.25 37.7 53.25 33.8333C53.25 29.9667 50.0279 29 48.4167 29H43.5833C41.9721 29 38.75 28.0333 38.75 24.1667C38.75 20.3 41.9721 19.3333 43.5833 19.3333H46M46 38.6667H38.75M46 38.6667V43.5M46 19.3333H53.25M46 19.3333V14.5M67.75 29C67.75 41.0123 58.0123 50.75 46 50.75C33.9878 50.75 24.25 41.0123 24.25 29C24.25 16.9878 33.9878 7.25 46 7.25C58.0123 7.25 67.75 16.9878 67.75 29Z" stroke="#FBCA1D" stroke-width="3" stroke-linecap="round" stroke-linejoin="round"/>
<line x1="9" y1="12" x2="22" y2="12" stroke="#FBCA1D" stroke-width="2"/>
<line x1="3" y1="20" x2="18" y2="20" stroke="#FBCA1D" stroke-width="2"/>
<line x1="10" y1="33" x2="22" y2="33" stroke="#FBCA1D" stroke-width="2"/>
<line y1="44" x2="21" y2="44" stroke="#FBCA1D" stroke-width="2"/>
<path d="M87.55 39.5V18.2H101.62V20.6H90.25V27.71H99.82V29.96H90.25V39.5H87.55ZM104.68 17.6H107.32V35.45C107.32 36.31 107.44 36.84 107.68 37.04C107.92 37.24 108.21 37.34 108.55 37.34C108.97 37.34 109.37 37.3 109.75 37.22C110.13 37.12 110.45 37.02 110.71 36.92L111.13 39.08C110.69 39.26 110.17 39.41 109.57 39.53C108.97 39.65 108.44 39.71 107.98 39.71C106.96 39.71 106.15 39.42 105.55 38.84C104.97 38.26 104.68 37.45 104.68 36.41V17.6ZM113.368 43.76C113.628 43.78 113.888 43.8 114.148 43.82C114.408 43.86 114.608 43.88 114.748 43.88C115.068 43.88 115.348 43.77 115.588 43.55C115.828 43.33 116.088 42.9 116.368 42.26C116.668 41.64 117.048 40.72 117.508 39.5L110.878 23.84H113.668L118.948 36.83L123.718 23.84H126.328L118.708 43.61C118.528 44.07 118.258 44.5 117.898 44.9C117.558 45.32 117.118 45.65 116.578 45.89C116.038 46.13 115.388 46.25 114.628 46.25C114.448 46.25 114.258 46.24 114.058 46.22C113.878 46.2 113.648 46.16 113.368 46.1V43.76ZM128.035 28.7C128.035 27.4 128.255 26.13 128.695 24.89C129.155 23.63 129.815 22.49 130.675 21.47C131.555 20.43 132.625 19.61 133.885 19.01C135.145 18.39 136.575 18.08 138.175 18.08C140.075 18.08 141.705 18.52 143.065 19.4C144.425 20.26 145.435 21.37 146.095 22.73L143.965 24.11C143.545 23.21 143.005 22.5 142.345 21.98C141.705 21.44 141.005 21.06 140.245 20.84C139.505 20.62 138.775 20.51 138.055 20.51C136.875 20.51 135.825 20.75 134.905 21.23C134.005 21.71 133.245 22.35 132.625 23.15C132.005 23.95 131.535 24.85 131.215 25.85C130.915 26.83 130.765 27.82 130.765 28.82C130.765 29.92 130.945 30.98 131.305 32C131.685 33.02 132.205 33.92 132.865 34.7C133.525 35.48 134.305 36.1 135.205 36.56C136.105 37.02 137.085 37.25 138.145 37.25C138.885 37.25 139.645 37.12 140.425 36.86C141.205 36.6 141.935 36.2 142.615 35.66C143.295 35.1 143.835 34.38 144.235 33.5L146.485 34.73C146.045 35.79 145.365 36.69 144.445 37.43C143.525 38.17 142.495 38.73 141.355 39.11C140.235 39.49 139.125 39.68 138.025 39.68C136.565 39.68 135.225 39.37 134.005 38.75C132.785 38.11 131.725 37.27 130.825 36.23C129.945 35.17 129.255 33.99 128.755 32.69C128.275 31.37 128.035 30.04 128.035 28.7ZM148.214 34.97C148.214 33.97 148.494 33.11 149.054 32.39C149.634 31.65 150.424 31.08 151.424 30.68C152.424 30.28 153.584 30.08 154.904 30.08C155.604 30.08 156.344 30.14 157.124 30.26C157.904 30.36 158.594 30.52 159.194 30.74V29.6C159.194 28.4 158.834 27.46 158.114 26.78C157.394 26.08 156.374 25.73 155.054 25.73C154.194 25.73 153.364 25.89 152.564 26.21C151.784 26.51 150.954 26.95 150.074 27.53L149.114 25.67C150.134 24.97 151.154 24.45 152.174 24.11C153.194 23.75 154.254 23.57 155.354 23.57C157.354 23.57 158.934 24.13 160.094 25.25C161.254 26.35 161.834 27.89 161.834 29.87V36.5C161.834 36.82 161.894 37.06 162.014 37.22C162.154 37.36 162.374 37.44 162.674 37.46V39.5C162.414 39.54 162.184 39.57 161.984 39.59C161.804 39.61 161.654 39.62 161.534 39.62C160.914 39.62 160.444 39.45 160.124 39.11C159.824 38.77 159.654 38.41 159.614 38.03L159.554 37.04C158.874 37.92 157.984 38.6 156.884 39.08C155.784 39.56 154.694 39.8 153.614 39.8C152.574 39.8 151.644 39.59 150.824 39.17C150.004 38.73 149.364 38.15 148.904 37.43C148.444 36.69 148.214 35.87 148.214 34.97ZM158.414 36.08C158.654 35.8 158.844 35.52 158.984 35.24C159.124 34.94 159.194 34.69 159.194 34.49V32.54C158.574 32.3 157.924 32.12 157.244 32C156.564 31.86 155.894 31.79 155.234 31.79C153.894 31.79 152.804 32.06 151.964 32.6C151.144 33.12 150.734 33.84 150.734 34.76C150.734 35.26 150.864 35.75 151.124 36.23C151.404 36.69 151.804 37.07 152.324 37.37C152.864 37.67 153.524 37.82 154.304 37.82C155.124 37.82 155.904 37.66 156.644 37.34C157.384 37 157.974 36.58 158.414 36.08ZM171.426 39.8C170.126 39.8 168.906 39.59 167.766 39.17C166.626 38.73 165.646 38.08 164.826 37.22L165.846 35.36C166.746 36.2 167.646 36.8 168.546 37.16C169.446 37.52 170.366 37.7 171.306 37.7C172.386 37.7 173.266 37.5 173.946 37.1C174.626 36.68 174.966 36.07 174.966 35.27C174.966 34.69 174.786 34.26 174.426 33.98C174.086 33.7 173.596 33.47 172.956 33.29C172.316 33.09 171.556 32.87 170.676 32.63C169.596 32.31 168.686 31.97 167.946 31.61C167.206 31.25 166.646 30.8 166.266 30.26C165.886 29.72 165.696 29.04 165.696 28.22C165.696 27.22 165.956 26.38 166.476 25.7C166.996 25 167.706 24.47 168.606 24.11C169.526 23.75 170.566 23.57 171.726 23.57C172.886 23.57 173.936 23.75 174.876 24.11C175.816 24.47 176.626 25 177.306 25.7L176.106 27.53C175.486 26.89 174.806 26.42 174.066 26.12C173.326 25.8 172.496 25.64 171.576 25.64C171.036 25.64 170.506 25.71 169.986 25.85C169.466 25.97 169.036 26.2 168.696 26.54C168.356 26.86 168.186 27.32 168.186 27.92C168.186 28.42 168.316 28.82 168.576 29.12C168.856 29.4 169.256 29.64 169.776 29.84C170.316 30.04 170.966 30.26 171.726 30.5C172.906 30.84 173.926 31.18 174.786 31.52C175.666 31.86 176.346 32.3 176.826 32.84C177.306 33.38 177.546 34.13 177.546 35.09C177.546 36.57 176.986 37.73 175.866 38.57C174.746 39.39 173.266 39.8 171.426 39.8ZM194.294 39.5H191.654V30.74C191.654 29.14 191.364 27.94 190.784 27.14C190.224 26.34 189.414 25.94 188.354 25.94C187.674 25.94 186.984 26.12 186.284 26.48C185.604 26.84 185.004 27.33 184.484 27.95C183.964 28.55 183.584 29.25 183.344 30.05V39.5H180.704V17.6H183.344V27.2C183.964 26.08 184.804 25.2 185.864 24.56C186.944 23.9 188.104 23.57 189.344 23.57C190.284 23.57 191.064 23.74 191.684 24.08C192.324 24.4 192.834 24.86 193.214 25.46C193.594 26.06 193.864 26.76 194.024 27.56C194.204 28.34 194.294 29.2 194.294 30.14V39.5Z" fill="#FBCA1D"/>
</svg>
