<svg width="55" height="55" viewBox="0 0 55 55" fill="none" xmlns="http://www.w3.org/2000/svg">
<rect width="55" height="55" rx="27.5" fill="#16AAFF"/>
<path fill-rule="evenodd" clip-rule="evenodd" d="M14.375 18.75C14.375 17.9446 15.0279 17.2917 15.8333 17.2917H39.1667C39.9721 17.2917 40.625 17.9446 40.625 18.75C40.625 19.5554 39.9721 20.2084 39.1667 20.2084H15.8333C15.0279 20.2084 14.375 19.5554 14.375 18.75ZM14.375 27.5C14.375 26.6946 15.0279 26.0417 15.8333 26.0417H39.1667C39.9721 26.0417 40.625 26.6946 40.625 27.5C40.625 28.3055 39.9721 28.9584 39.1667 28.9584H15.8333C15.0279 28.9584 14.375 28.3055 14.375 27.5ZM14.375 36.25C14.375 35.4446 15.0279 34.7917 15.8333 34.7917H39.1667C39.9721 34.7917 40.625 35.4446 40.625 36.25C40.625 37.0555 39.9721 37.7084 39.1667 37.7084H15.8333C15.0279 37.7084 14.375 37.0555 14.375 36.25Z" fill="white"/>
</svg>
