<svg width="509" height="624" viewBox="0 0 509 624" fill="none" xmlns="http://www.w3.org/2000/svg">
<path fill-rule="evenodd" clip-rule="evenodd" d="M799.931 240.847L803.414 245.325L806.701 249.907L809.787 254.588L812.667 259.362L815.337 264.222L817.795 269.163L820.038 274.177L822.065 279.257L823.877 284.397L825.473 289.589L826.858 294.826L828.034 300.102L829.008 305.41L829.785 310.743L830.373 316.096L830.78 321.462L831.016 326.837L831.089 332.215L831.011 337.594L830.791 342.968L830.44 348.336L829.969 353.694L829.388 359.041L828.709 364.375L827.94 369.695L827.091 375.001L826.172 380.293L825.189 385.57L824.15 390.834L823.062 396.086L821.928 401.325L820.753 406.553L819.538 411.77L818.287 416.978L816.998 422.176L815.673 427.365L814.311 432.546L812.911 437.719L811.473 442.882L809.994 448.038L808.473 453.184L806.906 458.319L805.29 463.444L803.623 468.557L801.9 473.655L800.118 478.737L798.272 483.801L796.358 488.843L794.372 493.861L792.31 498.85L790.166 503.809L787.936 508.732L785.616 513.615L783.201 518.453L780.688 523.242L778.073 527.977L775.352 532.651L772.521 537.261L769.578 541.799L766.52 546.261L763.345 550.64L760.052 554.931L756.639 559.129L753.105 563.226L749.45 567.219L745.674 571.101L741.778 574.866L737.764 578.511L733.632 582.03L729.386 585.419L725.028 588.673L720.561 591.789L715.989 594.764L711.316 597.593L706.547 600.276L701.686 602.809L696.74 605.191L691.712 607.422L686.61 609.499L681.439 611.424L676.206 613.197L670.918 614.818L665.58 616.289L660.2 617.611L654.784 618.788L649.339 619.822L643.873 620.717L638.391 621.476L632.899 622.103L627.405 622.602L621.914 622.977L616.432 623.233L610.963 623.374L605.512 623.404L600.085 623.329L594.685 623.151L589.318 622.877L583.986 622.512L578.693 622.059L573.442 621.524L568.238 620.913L563.082 620.23L557.978 619.481L552.927 618.672L547.933 617.808L542.996 616.896L538.12 615.94L533.304 614.948L528.551 613.926L523.862 612.881L519.238 611.819L514.678 610.748L510.184 609.675L505.756 608.607L501.392 607.552L497.092 606.515L492.854 605.503L488.677 604.521L484.559 603.574L480.498 602.667L476.49 601.803L472.533 600.985L468.623 600.217L464.759 599.5L460.935 598.835L457.149 598.224L453.396 597.666L449.674 597.16L445.979 596.705L442.307 596.3L438.655 595.941L435.019 595.626L431.397 595.351L427.785 595.111L424.181 594.903L420.583 594.72L416.988 594.557L413.394 594.408L409.8 594.268L406.205 594.129L402.608 593.984L399.008 593.828L395.406 593.654L391.801 593.453L388.195 593.22L384.589 592.947L380.983 592.629L377.379 592.258L373.78 591.828L370.187 591.335L366.603 590.772L363.031 590.134L359.473 589.417L355.933 588.616L352.413 587.729L348.918 586.753L345.449 585.684L342.011 584.521L338.606 583.264L335.237 581.911L331.908 580.464L328.62 578.922L325.377 577.287L322.181 575.562L319.033 573.748L315.935 571.85L312.888 569.871L309.893 567.816L306.949 565.689L304.056 563.5L301.212 561.254L298.414 558.961L295.658 556.631L292.94 554.272L290.254 551.896L287.594 549.512L284.954 547.131L282.325 544.763L279.7 542.419L277.069 540.107L274.424 537.837L271.754 535.618L269.05 533.458L266.302 531.362L263.5 529.338L260.633 527.39L257.692 525.521L254.668 523.736L251.551 522.035L248.333 520.418L245.006 518.885L241.563 517.434L237.998 516.061L234.306 514.762L230.481 513.532L226.52 512.367L222.418 511.258L218.175 510.201L213.787 509.186L209.255 508.205L204.579 507.25L199.76 506.311L194.801 505.379L189.706 504.443L184.478 503.493L179.124 502.519L173.649 501.51L168.062 500.455L162.372 499.343L156.587 498.164L150.718 496.908L144.776 495.565L138.775 494.124L132.725 492.577L126.642 490.914L120.539 489.128L114.432 487.21L108.335 485.153L102.263 482.951L96.2342 480.599L90.2632 478.091L84.3666 475.424L78.5607 472.594L72.8619 469.599L67.2862 466.438L61.8494 463.109L56.567 459.615L51.4541 455.955L46.5252 452.132L41.7941 448.149L37.2741 444.009L32.9775 439.718L28.9158 435.28L25.0997 430.703L21.5387 425.991L18.2413 421.154L15.2151 416.199L12.4661 411.134L9.99954 405.968L7.81919 400.711L5.92761 395.372L4.32615 389.961L3.01484 384.488L1.99247 378.963L1.25657 373.396L0.80342 367.797L0.628243 362.175L0.725536 356.541L1.08924 350.903L1.71271 345.271L2.58875 339.652L3.70956 334.056L5.0668 328.491L6.6516 322.962L8.4546 317.479L10.466 312.046L12.6754 306.671L15.0725 301.358L17.6463 296.112L20.3857 290.939L23.2797 285.841L26.3169 280.822L29.4863 275.886L32.7768 271.033L36.1777 266.267L39.6788 261.588L43.27 256.998L46.9421 252.497L50.6865 248.086L54.4953 243.764L58.3616 239.531L62.2791 235.388L66.2416 231.333L70.2431 227.367L74.2778 223.488L78.3401 219.695L82.4245 215.986L86.526 212.361L90.6396 208.817L94.7607 205.353L98.8849 201.967L103.008 198.656L107.127 195.42L111.238 192.254L115.337 189.158L119.423 186.13L123.492 183.166L127.543 180.265L131.573 177.424L135.582 174.642L139.567 171.917L143.529 169.245L147.466 166.627L151.378 164.059L155.264 161.541L159.126 159.07L162.962 156.646L166.774 154.267L170.562 151.932L174.327 149.64L178.069 147.39L181.791 145.182L185.491 143.014L189.173 140.887L192.837 138.799L196.483 136.751L200.114 134.743L203.73 132.774L207.332 130.843L210.921 128.952L214.499 127.1L218.065 125.287L221.622 123.512L225.168 121.776L228.706 120.079L232.235 118.42L235.756 116.8L239.268 115.217L242.773 113.671L246.269 112.162L249.758 110.689L253.238 109.251L256.709 107.847L260.171 106.476L263.624 105.137L267.067 103.828L270.5 102.547L273.921 101.292L277.33 100.061L280.725 98.8507L284.106 97.6577L287.472 96.4785L290.821 95.309L294.152 94.1452L297.465 92.9825L300.759 91.8164L304.033 90.6421L307.287 89.4547L310.521 88.2494L313.734 87.0212L316.928 85.7652L320.103 84.4768L323.26 83.1514L326.4 81.7847L329.525 80.3726L332.637 78.9114L335.737 77.3978L338.829 75.8288L341.916 74.202L344.999 72.5154L348.083 70.7676L351.171 68.9577L354.265 67.0852L357.371 65.1504L360.492 63.1539L363.631 61.097L366.793 58.9818L369.981 56.8107L373.2 54.5871L376.453 52.3147L379.743 49.9981L383.074 47.6425L386.45 45.2535L389.874 42.8377L393.349 40.402L396.876 37.954L400.459 35.5018L404.1 33.0539L407.799 30.6195L411.558 28.208L415.377 25.8293L419.258 23.4937L423.198 21.2115L427.197 18.9934L431.255 16.8502L435.369 14.7928L439.536 12.8322L443.753 10.9791L448.018 9.24429L452.325 7.63832L456.671 6.17147L461.05 4.85363L465.457 3.69439L469.885 2.70277L474.329 1.88735L478.781 1.25602L483.234 0.816091L487.682 0.574089L492.116 0.535819L496.529 0.706263L500.913 1.08952L505.259 1.68879L509.561 2.50632L513.809 3.54346L517.996 4.80052L522.114 6.27681L526.157 7.97066L530.116 9.87938L533.985 11.9993L537.758 14.3256L541.429 16.8529L544.992 19.5744L548.443 22.4826L551.779 25.5692L554.994 28.8251L558.088 32.2399L561.058 35.8023L563.905 39.4995L566.629 43.3179L569.232 47.2429L571.717 51.2591L574.089 55.3508L576.353 59.5018L578.516 63.6958L580.586 67.9164L582.57 72.1474L584.479 76.3729L586.323 80.5773L588.113 84.7458L589.86 88.8641L591.577 92.9191L593.277 96.8984L594.971 100.791L596.674 104.586L598.398 108.276L600.156 111.853L601.959 115.311L603.821 118.647L605.752 121.856L607.762 124.938L609.862 127.894L612.061 130.723L614.366 133.429L616.787 136.014L619.33 138.482L622.002 140.838L624.809 143.087L627.754 145.237L630.843 147.294L634.077 149.267L637.46 151.164L640.99 152.993L644.67 154.765L648.496 156.49L652.468 158.177L656.581 159.838L660.832 161.482L665.216 163.122L669.726 164.767L674.355 166.428L679.096 168.116L683.939 169.841L688.876 171.614L693.895 173.444L698.986 175.341L704.138 177.314L709.338 179.371L714.574 181.519L719.833 183.768L725.102 186.122L730.367 188.588L735.614 191.171L740.831 193.876L746.003 196.707L751.116 199.667L756.158 202.757L761.114 205.98L765.973 209.336L770.722 212.826L775.348 216.449L779.84 220.202L784.187 224.085L788.379 228.095L792.406 232.228L796.26 236.48L799.931 240.847Z" fill="#B3E3FF"/>
</svg>
