<svg width="95" height="95" viewBox="0 0 95 95" fill="none" xmlns="http://www.w3.org/2000/svg">
<path fill-rule="evenodd" clip-rule="evenodd" d="M81.6406 2.96875C79.1991 2.96796 76.804 3.63627 74.7156 4.90108C72.6272 6.16589 70.9254 7.97883 69.795 10.1429C68.6646 12.307 68.1488 14.7395 68.3038 17.1761C68.4588 19.6128 69.2786 21.9603 70.674 23.9638L65.1344 29.5094C64.8845 29.7596 64.6653 30.0387 64.4812 30.3406C63.3531 29.9191 62.13 29.6875 60.8594 29.6875H46.0156C44.6511 29.6875 43.2999 29.9563 42.0393 30.4784C40.7787 31.0006 39.6332 31.766 38.6683 32.7308C37.7035 33.6957 36.9381 34.8412 36.4159 36.1018C35.8938 37.3625 35.625 38.7136 35.625 40.0781V43.0469H25.9587C24.9083 40.0757 22.8412 37.5715 20.123 35.977C17.4048 34.3824 14.2103 33.8001 11.1043 34.333C7.99827 34.8659 5.18063 36.4797 3.14937 38.8892C1.11811 41.2986 0.00402832 44.3486 0.00402832 47.5C0.00402832 50.6514 1.11811 53.7014 3.14937 56.1108C5.18063 58.5203 7.99827 60.1341 11.1043 60.667C14.2103 61.1999 17.4048 60.6176 20.123 59.023C22.8412 57.4285 24.9083 54.9243 25.9587 51.9531H35.625V54.9219C35.625 60.6575 40.28 65.3125 46.0156 65.3125H60.8594C62.13 65.3125 63.3531 65.0809 64.4812 64.6594C64.6594 64.9563 64.8791 65.2353 65.1344 65.4906L70.674 71.0362C68.8765 73.6178 68.0475 76.7508 68.3332 79.8835C68.6189 83.0162 70.0009 85.9476 72.2357 88.1614C74.4706 90.3752 77.415 91.7293 80.5502 91.9853C83.6855 92.2413 86.8106 91.3827 89.3749 89.5608C91.9393 87.7388 93.7785 85.0704 94.5686 82.0256C95.3586 78.9807 95.0489 75.7547 93.6939 72.9158C92.3389 70.0769 90.0255 67.8071 87.1613 66.5064C84.2971 65.2057 81.0658 64.9574 78.0366 65.8053L71.4281 59.1969C71.1779 58.9469 70.8989 58.7277 70.5969 58.5437C71.0184 57.4156 71.25 56.1925 71.25 54.9219V40.0781C71.25 38.8075 71.0184 37.5844 70.5969 36.4562C70.8989 36.2723 71.1779 36.0531 71.4281 35.8031L78.0366 29.1947C80.0222 29.7485 82.1089 29.8357 84.1338 29.4495C86.1587 29.0633 88.0669 28.2142 89.7093 26.9684C91.3516 25.7227 92.6838 24.1141 93.6016 22.2683C94.5194 20.4225 94.998 18.3895 95 16.3281C95 12.785 93.5925 9.38699 91.0871 6.88162C88.5817 4.37625 85.1837 2.96875 81.6406 2.96875ZM77.1875 16.3281C77.1875 15.1471 77.6567 14.0144 78.4918 13.1793C79.3269 12.3442 80.4596 11.875 81.6406 11.875C82.8217 11.875 83.9543 12.3442 84.7895 13.1793C85.6246 14.0144 86.0937 15.1471 86.0937 16.3281C86.0937 17.5092 85.6246 18.6418 84.7895 19.477C83.9543 20.3121 82.8217 20.7813 81.6406 20.7813C80.4596 20.7813 79.3269 20.3121 78.4918 19.477C77.6567 18.6418 77.1875 17.5092 77.1875 16.3281ZM46.0156 38.5938C45.6219 38.5938 45.2444 38.7501 44.966 39.0285C44.6876 39.3069 44.5312 39.6844 44.5312 40.0781V54.9219C44.5312 55.7412 45.1962 56.4062 46.0156 56.4062H60.8594C61.253 56.4062 61.6306 56.2499 61.909 55.9715C62.1874 55.6931 62.3437 55.3156 62.3437 54.9219V40.0781C62.3437 39.6844 62.1874 39.3069 61.909 39.0285C61.6306 38.7501 61.253 38.5938 60.8594 38.5938H46.0156ZM81.6406 74.2188C80.4596 74.2188 79.3269 74.6879 78.4918 75.523C77.6567 76.3582 77.1875 77.4908 77.1875 78.6719C77.1875 79.8529 77.6567 80.9856 78.4918 81.8207C79.3269 82.6558 80.4596 83.125 81.6406 83.125C82.8217 83.125 83.9543 82.6558 84.7895 81.8207C85.6246 80.9856 86.0937 79.8529 86.0937 78.6719C86.0937 77.4908 85.6246 76.3582 84.7895 75.523C83.9543 74.6879 82.8217 74.2188 81.6406 74.2188ZM8.90624 47.5C8.90624 46.319 9.37541 45.1863 10.2105 44.3512C11.0457 43.516 12.1783 43.0469 13.3594 43.0469C14.5404 43.0469 15.6731 43.516 16.5082 44.3512C17.3433 45.1863 17.8125 46.319 17.8125 47.5C17.8125 48.681 17.3433 49.8137 16.5082 50.6488C15.6731 51.484 14.5404 51.9531 13.3594 51.9531C12.1783 51.9531 11.0457 51.484 10.2105 50.6488C9.37541 49.8137 8.90624 48.681 8.90624 47.5Z" fill="#FBCA1D"/>
</svg>
