<svg width="111" height="111" viewBox="0 0 111 111" fill="none" xmlns="http://www.w3.org/2000/svg">
<g clip-path="url(#clip0_34_38)">
<path d="M25.4264 17.1H106.739C108.214 17.1 109.342 18.2281 109.342 19.7034V70.2959C109.342 71.7712 108.214 72.8993 106.739 72.8993H25.4264C23.9511 72.8993 22.823 71.7712 22.823 70.2959V19.7034C22.823 18.2281 23.9511 17.1 25.4264 17.1Z" fill="#FBCA1D"/>
<path d="M106.739 74.6349H25.4264C22.9966 74.6349 21.0874 72.7257 21.0874 70.2959V19.7034C21.0874 17.2735 22.9966 15.3644 25.4264 15.3644H106.739C109.169 15.3644 111.078 17.2735 111.078 19.7034V70.2959C111.078 72.639 109.169 74.6349 106.739 74.6349ZM25.4264 18.8356C24.9057 18.8356 24.5586 19.1827 24.5586 19.7034V70.2959C24.5586 70.8166 24.9057 71.1637 25.4264 71.1637H106.739C107.26 71.1637 107.607 70.8166 107.607 70.2959V19.7034C107.607 19.1827 107.26 18.8356 106.739 18.8356H25.4264Z" fill="#171407"/>
<path d="M18.0502 24.4763H99.4495C100.925 24.4763 102.053 25.6045 102.053 27.0797V77.6722C102.053 79.1475 100.925 80.2756 99.4495 80.2756H18.0502C16.5749 80.2756 15.4468 79.1475 15.4468 77.6722V27.0797C15.4468 25.6045 16.5749 24.4763 18.0502 24.4763Z" fill="#FBCA1D"/>
<path d="M99.3627 82.0112H18.0502C15.6203 82.0112 13.7112 80.1021 13.7112 77.6722V27.0797C13.7112 24.6499 15.6203 22.7407 18.0502 22.7407H99.4495C101.879 22.7407 103.788 24.6499 103.788 27.0797V77.6722C103.702 80.0153 101.793 82.0112 99.3627 82.0112ZM18.0502 26.2119C17.5295 26.2119 17.1824 26.559 17.1824 27.0797V77.6722C17.1824 78.1929 17.5295 78.54 18.0502 78.54H99.4495C99.9702 78.54 100.317 78.1929 100.317 77.6722V27.0797C100.317 26.559 99.9702 26.2119 99.4495 26.2119H18.0502Z" fill="#171407"/>
<path d="M11.2814 31.679H92.6807C94.1559 31.679 95.2841 32.8071 95.2841 34.2823V84.8749C95.2841 86.3501 94.1559 87.4783 92.6807 87.4783H11.2814C9.80611 87.4783 8.67798 86.3501 8.67798 84.8749V34.2823C8.67798 32.8939 9.80611 31.679 11.2814 31.679Z" fill="#FBCA1D"/>
<path d="M92.6807 89.2139H11.2814C8.85153 89.2139 6.94238 87.3047 6.94238 84.8749V34.2823C6.94238 31.8525 8.85153 29.9434 11.2814 29.9434H92.6807C95.1105 29.9434 97.0197 31.8525 97.0197 34.2823V84.8749C97.0197 87.2179 95.0237 89.2139 92.6807 89.2139ZM11.2814 33.4145C10.7607 33.4145 10.4136 33.7617 10.4136 34.2823V84.8749C10.4136 85.3956 10.7607 85.7427 11.2814 85.7427H92.6807C93.2014 85.7427 93.5485 85.3956 93.5485 84.8749V34.2823C93.5485 33.7617 93.2014 33.4145 92.6807 33.4145H11.2814Z" fill="#171407"/>
<path d="M4.33899 38.1007H85.7383C87.2136 38.1007 88.3417 39.2288 88.3417 40.7041V91.2966C88.3417 92.7719 87.2136 93.9 85.7383 93.9H4.33899C2.86373 93.9 1.7356 92.7719 1.7356 91.2966V40.7041C1.7356 39.3156 2.86373 38.1007 4.33899 38.1007Z" fill="#FBCA1D"/>
<path d="M85.7383 95.6356H4.33898C1.90915 95.6356 0 93.7265 0 91.2966V40.7041C0 38.2743 1.90915 36.3651 4.33898 36.3651H85.7383C88.1681 36.3651 90.0773 38.2743 90.0773 40.7041V91.2966C90.0773 93.7265 88.0813 95.6356 85.7383 95.6356ZM4.33898 39.8363C3.8183 39.8363 3.47119 40.1834 3.47119 40.7041V91.2966C3.47119 91.8173 3.8183 92.1644 4.33898 92.1644H85.7383C86.259 92.1644 86.6061 91.8173 86.6061 91.2966V40.7041C86.6061 40.1834 86.259 39.8363 85.7383 39.8363H4.33898Z" fill="#171407"/>
<path d="M74.8041 86.0899H15.2732C15.2732 82.0112 11.8888 78.6268 7.81018 78.6268V52.4193C11.8888 52.4193 15.2732 49.0349 15.2732 44.9563H74.8041C74.8041 49.0349 78.1885 52.4193 82.2671 52.4193V78.6268C78.1017 78.6268 74.8041 82.0112 74.8041 86.0899Z" fill="#FEEAA0"/>
<path d="M74.8041 87.8254H15.2732C14.3187 87.8254 13.5376 87.0444 13.5376 86.0899C13.5376 82.9658 10.9342 80.3624 7.81018 80.3624C6.8556 80.3624 6.07458 79.5814 6.07458 78.6268V52.4193C6.07458 51.4648 6.8556 50.6838 7.81018 50.6838C10.9342 50.6838 13.5376 48.0804 13.5376 44.9563C13.5376 44.0017 14.3187 43.2207 15.2732 43.2207H74.8041C75.7587 43.2207 76.5397 44.0017 76.5397 44.9563C76.5397 48.0804 79.1431 50.6838 82.2671 50.6838C83.2217 50.6838 84.0027 51.4648 84.0027 52.4193V78.6268C84.0027 79.5814 83.2217 80.3624 82.2671 80.3624C79.1431 80.3624 76.5397 82.9658 76.5397 86.0899C76.5397 87.0444 75.7587 87.8254 74.8041 87.8254ZM16.8353 84.3543H73.1553C73.8495 80.7095 76.8 77.759 80.4448 77.0648V53.9814C76.8 53.2871 73.8495 50.3366 73.1553 46.6919H16.8353C16.141 50.3366 13.1905 53.2871 9.54577 53.9814V76.978C13.1905 77.759 16.141 80.7095 16.8353 84.3543Z" fill="#171407"/>
<path d="M45.2122 77.3251C42.4353 77.3251 39.4848 76.2838 37.402 73.5936C36.7946 72.8126 36.9681 71.7712 37.6624 71.1638C38.4434 70.5563 39.4847 70.7299 40.0922 71.4241C42.1749 74.1143 45.3858 74.201 47.4685 73.5068C49.2041 72.8994 50.2454 71.7712 50.2454 70.5563C50.2454 69.4282 47.5553 68.6472 45.2122 67.9529C41.5675 66.8248 36.9681 65.5231 36.9681 61.1841C36.9681 59.1014 38.2698 57.1922 40.5261 56.0641C43.3031 54.6756 47.9892 54.1549 52.4149 57.3658C53.1959 57.9733 53.3695 59.0146 52.762 59.7956C52.1546 60.5766 51.1132 60.7502 50.3322 60.1427C47.3817 57.9733 44.0841 58.06 42.0881 59.1014C41.0468 59.6221 40.3525 60.4031 40.3525 61.1841C40.3525 62.8329 42.7824 63.6139 46.08 64.6553C49.638 65.6966 53.5431 66.9116 53.5431 70.5563C53.5431 73.2465 51.5471 75.6763 48.4231 76.8044C47.5553 77.0648 46.3403 77.3251 45.2122 77.3251Z" fill="#171407"/>
<path d="M45.0387 58.4072C44.0841 58.4072 43.3031 57.6262 43.3031 56.6716V52.8533C43.3031 51.8987 44.0841 51.1177 45.0387 51.1177C45.9933 51.1177 46.7743 51.8987 46.7743 52.8533V56.6716C46.7743 57.7129 45.9933 58.4072 45.0387 58.4072Z" fill="#171407"/>
<path d="M45.0387 80.6228C44.0841 80.6228 43.3031 79.8417 43.3031 78.8872V76.0234C43.3031 75.0689 44.0841 74.2878 45.0387 74.2878C45.9933 74.2878 46.7743 75.0689 46.7743 76.0234V78.8872C46.7743 79.8417 45.9933 80.6228 45.0387 80.6228Z" fill="#171407"/>
<path d="M19.1783 66.5644C19.1783 66.986 19.2614 67.4035 19.4228 67.7931C19.5841 68.1827 19.8206 68.5366 20.1188 68.8348C20.4169 69.1329 20.7709 69.3694 21.1605 69.5308C21.55 69.6922 21.9675 69.7752 22.3892 69.7752C22.8108 69.7752 23.2284 69.6922 23.6179 69.5308C24.0075 69.3694 24.3615 69.1329 24.6596 68.8348C24.9578 68.5366 25.1943 68.1827 25.3556 67.7931C25.517 67.4035 25.6 66.986 25.6 66.5644C25.6 65.7128 25.2618 64.8961 24.6596 64.2939C24.0575 63.6918 23.2408 63.3535 22.3892 63.3535C21.5376 63.3535 20.7209 63.6918 20.1188 64.2939C19.5166 64.8961 19.1783 65.7128 19.1783 66.5644Z" fill="#FBCA1D"/>
<path d="M22.3892 71.424C19.699 71.424 17.4427 69.2545 17.4427 66.4776C17.4427 63.7006 19.6122 61.5311 22.3892 61.5311C25.0794 61.5311 27.3356 63.7006 27.3356 66.4776C27.3356 69.2545 25.0794 71.424 22.3892 71.424ZM22.3892 65.0891C21.6082 65.0891 20.9139 65.6966 20.9139 66.5643C20.9139 67.4321 21.5214 68.0396 22.3892 68.0396C23.1702 68.0396 23.8644 67.4321 23.8644 66.5643C23.8644 65.6966 23.1702 65.0891 22.3892 65.0891Z" fill="#171407"/>
<path d="M64.6509 66.5644C64.6509 67.4159 64.9892 68.2326 65.5913 68.8348C66.1935 69.4369 67.0102 69.7752 67.8617 69.7752C68.7133 69.7752 69.53 69.4369 70.1321 68.8348C70.7343 68.2326 71.0726 67.4159 71.0726 66.5644C71.0726 65.7128 70.7343 64.8961 70.1321 64.2939C69.53 63.6918 68.7133 63.3535 67.8617 63.3535C67.0102 63.3535 66.1935 63.6918 65.5913 64.2939C64.9892 64.8961 64.6509 65.7128 64.6509 66.5644Z" fill="#FBCA1D"/>
<path d="M67.8617 71.424C65.1716 71.424 62.9153 69.2545 62.9153 66.4776C62.9153 63.7006 65.0848 61.5311 67.8617 61.5311C70.5519 61.5311 72.8082 63.7006 72.8082 66.4776C72.8082 69.2545 70.5519 71.424 67.8617 71.424ZM67.8617 65.0891C67.0807 65.0891 66.3865 65.6966 66.3865 66.5643C66.3865 67.4321 66.9939 68.0396 67.8617 68.0396C68.7295 68.0396 69.337 67.4321 69.337 66.5643C69.337 65.6966 68.6427 65.0891 67.8617 65.0891Z" fill="#171407"/>
</g>
<defs>
<clipPath id="clip0_34_38">
<rect width="111" height="111" fill="white"/>
</clipPath>
</defs>
</svg>
